<svg xmlns="http://www.w3.org/2000/svg" width="500" height="500" viewBox="0 0 500 500"><circle fill="#E8574D" cx="249.623" cy="247.999" r="239.592"/><circle fill="#E8574D" stroke="#fff" stroke-width="18.287" stroke-miterlimit="10" cx="249.623" cy="247.999" r="206.384"/><path fill="#fff" stroke="#E8574D" stroke-width="4.8" stroke-miterlimit="10" d="M180.589 167.002c-32.263 0-58.417 7.008-58.417 15.653v175.161c0 8.646 26.154 15.654 58.417 15.654 32.262 0 58.416-7.009 58.416-15.654v-175.161c0-8.644-26.154-15.653-58.416-15.653zM343.398 232.917c-32.263 0-58.417 7.008-58.417 15.653v91.19500000000001c0 8.646 26.154 15.654 58.417 15.654 32.262 0 58.416-7.009 58.416-15.654v-91.19500000000001c0-8.645-26.154-15.653-58.416-15.653z"/><path fill="#E8574D" d="M218.949 191.542c-37.658 6.809-96.587-1.174-94.892-12.382-.958 1.124-1.464 2.294-1.464 3.496v6.392c33.323 22.487 126.367.403 96.356 2.494zM381.338 257.456c-37.658 6.809-96.588-1.174-94.893-12.382-.956 1.124-1.464 2.294-1.464 3.496v6.392c33.323 22.487 126.368.403 96.357 2.494z"/><path fill="#fff" stroke="#E8574D" stroke-width="5.05" stroke-miterlimit="10" d="M191.478 89.041c4.455 16.847-104.22 54.228-12.198 93.26 65.586-29.413 9.51-54.561 33.394-71.988-34.628 10.086-15.04 40.4-32.001 48.055-38.226-28.06 43.468-41.154 10.805-69.327z"/><path fill="#fff" stroke="#E8574D" stroke-width="4.8" stroke-miterlimit="10" d="M257.928 303.192c-36.7 0-66.45 7.973-66.45 17.806v69.037c0 9.834 29.75 17.806 66.45 17.806 36.698 0 66.449-7.972 66.449-17.806v-69.037c0-9.833-29.751-17.806-66.449-17.806z"/><path fill="#fff" stroke="#E8574D" stroke-width="5.05" stroke-miterlimit="10" d="M269.994 206.143c5.067 19.164-118.552 67.508-13.876 111.907 74.605-33.458 10.817-62.063 37.986-81.888-39.39 11.473-17.107 45.955-36.402 54.664-43.482-31.919 49.447-52.636 12.292-84.683z"/><path fill="#E8574D" d="M301.084 331.106c-42.837 7.745-109.87-1.336-107.941-14.085-1.089 1.279-1.665 2.61-1.665 3.977v7.271c37.904 25.581 143.744.46 109.606 2.837z"/><path fill="#fff" stroke="#E8574D" stroke-width="5.05" stroke-miterlimit="10" d="M352.48 160.144c4.323 16.348-98.148 49.977-8.851 87.854 63.646-28.542 9.229-52.946 32.406-69.857-33.604 9.788-14.595 39.205-31.055 46.633-37.092-27.231 39.197-37.291 7.5-64.63z"/></svg>